<svg width="3000" height="3000" viewBox="0 0 3000 3000" fill="none" xmlns="http://www.w3.org/2000/svg">
<path d="M814.908 2294.07V2309.27H841.314V2594.73L821.372 2597.09V2606.75H1043.73L1054.11 2530.81H1040.45C1023.89 2572.63 994.059 2595 950.942 2597.92H910.149V2312.45H974.89C1006.16 2315.91 1024.82 2320.43 1030.89 2326.03V2367.64H1049.19V2294.07H814.908ZM1006.12 2382.03H991.643C985.671 2412.36 967.824 2432.36 938.104 2442.03V2453.96C973.908 2459.27 990.448 2475.53 987.728 2502.76H1006.12V2382.03Z" fill="white"/>
<path d="M1285.93 2529.17L1277.09 2529.99C1259.84 2564.03 1230.52 2585.88 1189.15 2595.55V2605.93H1285.93V2529.17Z" fill="white"/>
<path d="M1064.49 2307.63H1090.89V2593.17H1070.04V2609.93C1082.92 2610.77 1094.15 2608.61 1103.73 2603.47C1131.39 2593.79 1148.15 2579.16 1154 2559.59V2306.81H1174.03V2297.25H1064.49V2307.63Z" fill="white"/>
<path d="M1299.59 2306.81H1315.61V2597.92H1299.59V2608.29H1405.95V2593.09H1385.19V2311.64L1404.31 2310.83V2297.16H1299.59V2306.81Z" fill="white"/>
<path d="M1511.47 2312.83C1538.12 2306.29 1562.68 2312.24 1585.13 2330.67C1616.99 2370.51 1630.43 2421.25 1625.47 2482.91C1627.41 2525.48 1611.76 2557.53 1578.49 2579.07C1555.43 2590.24 1533.08 2593.88 1511.47 2589.99V2312.83ZM1421.15 2300.44L1420.33 2314.01H1443.45V2595.55H1424.24V2605.11H1562.64C1618.23 2600.19 1658.53 2572.72 1683.56 2522.71C1695.08 2491.92 1695.87 2453.32 1685.93 2406.88C1661.36 2335.73 1611.49 2300.25 1536.33 2300.44H1421.15Z" fill="white"/>
<path d="M1842.09 2481.19C1848.77 2482.21 1856.17 2484.16 1864.31 2487.01C1889.68 2492.87 1901.47 2490.2 1899.64 2479L1820.41 2295.25L1679.83 2597.28H1654.61V2611.76H1737.47V2591.45H1718.08V2547.47L1752.59 2482.64C1792.43 2480.93 1816.47 2488.16 1824.69 2504.31C1825.4 2483.47 1816.48 2470.48 1797.93 2465.33H1758.51L1795.84 2389.67C1821.08 2450.56 1836.49 2481.07 1842.09 2481.19Z" fill="white"/>
<path d="M1919.76 2525.89L1854.93 2526.61L1883.8 2597.92H1865.76V2608.03H1951.53V2592.91L1919.76 2525.89Z" fill="white"/>
<path d="M2102.87 2311.19C2125.23 2317.89 2137.25 2335.89 2138.93 2365.17C2143.61 2397.87 2138.09 2421.91 2122.36 2437.29C2118.31 2442.24 2104.13 2443.41 2079.83 2440.84H2048.15V2311.19H2102.87ZM1959.45 2297.44V2315.47H1981.77V2595.09H1964.47V2606.65H2062.53V2595.83H2053.88V2456.77C2081.28 2492.81 2103.85 2528.84 2121.63 2564.87C2131.16 2589.72 2143.17 2602.2 2157.68 2602.28H2218.88L2131.73 2471.16C2177.19 2466 2202.65 2441.72 2208.13 2398.32C2210.17 2336.28 2176.29 2302.65 2106.51 2297.44H1959.45Z" fill="white"/>
<path d="M2223.97 2297.07V2313.28H2250.65V2408.43H2295.27L2315.48 2396.96V2311.91L2398.35 2321.2V2331.31H2406.27L2443.05 2314.73V2297.44L2223.97 2297.07ZM2402.71 2376.75H2391.15C2380.55 2408.27 2363.72 2426.05 2340.71 2430.11V2447.4C2367.76 2448.12 2381.68 2464.93 2382.49 2497.84L2402.71 2498.57V2376.75ZM2458.89 2529.53H2449.52C2438.68 2555.71 2421.15 2574.44 2396.88 2585.71C2378.24 2591.56 2353.03 2594.44 2321.21 2594.36L2311.2 2458.15C2301.43 2457 2293.47 2452.2 2287.35 2443.76L2249.92 2435.11V2594.36H2229.71V2611.67H2458.89V2529.53Z" fill="white"/>
<path d="M542.655 2299.44V2317.92H561.139V2454.96L610.399 2433.37L631.979 2413.35V2299.44H542.655ZM713.564 2302.53C702.952 2315.51 702.436 2332.95 712.016 2354.89V2399.51C726.903 2408.32 730.999 2417.57 724.308 2427.28L693.532 2447.31C722.975 2461.31 736.33 2483.4 733.596 2513.6C736.696 2548.05 715.632 2577.79 670.404 2602.83C683.822 2611.12 708.466 2607.51 744.34 2592C796.748 2571.13 813.199 2532.65 793.691 2476.53C781.304 2451.53 762.82 2440.76 738.24 2444.21C729.578 2437.83 732.128 2431.67 745.888 2425.73C769.822 2420 780.05 2394.81 776.574 2350.16C762.646 2313.04 741.642 2297.17 713.564 2302.53ZM631.979 2612.03V2471.89L564.144 2474.99V2590.45L541.107 2596.64V2612.03H631.979Z" fill="white"/>
<path d="M1727.41 515.267C1755.79 515.88 1782.93 520.133 1808.81 528.013C1974.26 591.72 2050.3 708.84 2036.9 879.4C2004.27 1039.28 1913.29 1130.97 1763.91 1154.47H964.552L964.182 850.66L846.909 850.257V1464.15H964.277V1279.76H1767.38C1970.69 1338.68 2062.1 1457.57 2041.63 1636.43C2001.54 1814.36 1891.37 1909.33 1711.1 1921.33H965.917V1705.66H837.165L837.165 2044.07H1755.35C1910.3 2031.25 2035.98 1938.01 2132.42 1764.35C2204.11 1549.76 2143.3 1365.16 1949.94 1210.56C2129.67 1091.49 2190.62 913.027 2132.78 675.16C2047.54 493.267 1920.58 397.533 1751.9 387.973H846.545L844.905 613.787H965.826V515.267H1727.41Z" fill="white"/>
<path d="M2108.83 1555.11C2088.03 1567.71 2050.67 1577 1996.74 1582.97H685.925L686.379 849.707L1973.62 854.267C2166.95 874.96 2280.31 980.827 2313.7 1171.87C2325.9 1349.29 2257.61 1477.04 2108.83 1555.11ZM2166.47 1653.81C2362.21 1551.12 2452.05 1383.04 2435.99 1149.55C2392.09 898.173 2242.94 758.92 1988.55 731.8L569.011 731.067L562.182 1705.71H1951.39C2044.38 1697.6 2116.07 1680.31 2166.47 1653.81Z" fill="white"/>
</svg>
