<svg xmlns="http://www.w3.org/2000/svg" fill="none" viewBox="541.11 1341.02 1917.78 317.96">
<path d="M814.908 1341.02V1356.22H841.314V1641.69L821.372 1644.05V1653.7H1043.73L1054.11 1577.77H1040.45C1023.89 1619.58 994.059 1641.95 950.942 1644.87H910.149V1359.41H974.89C1006.16 1362.86 1024.82 1367.38 1030.89 1372.98V1414.59H1049.19V1341.02H814.908ZM1006.12 1428.98H991.643C985.671 1459.31 967.824 1479.31 938.104 1488.98V1500.91C973.908 1506.22 990.448 1522.49 987.728 1549.71H1006.12V1428.98Z" fill="white"/>
<path d="M1285.93 1576.13L1277.09 1576.94C1259.84 1610.98 1230.52 1632.83 1189.15 1642.5V1652.89H1285.93V1576.13Z" fill="white"/>
<path d="M1064.49 1354.58H1090.89V1640.13H1070.04V1656.89C1082.92 1657.73 1094.15 1655.57 1103.73 1650.42C1131.39 1640.74 1148.15 1626.11 1154 1606.54V1353.77H1174.03V1344.21H1064.49V1354.58Z" fill="white"/>
<path d="M1299.59 1353.77H1315.61V1644.87H1299.59V1655.25H1405.95V1640.05H1385.19V1358.59L1404.31 1357.78V1344.11H1299.59V1353.77Z" fill="white"/>
<path d="M1511.47 1359.78C1538.12 1353.25 1562.68 1359.19 1585.13 1377.62C1616.99 1417.46 1630.43 1468.21 1625.47 1529.86C1627.41 1572.43 1611.76 1604.49 1578.49 1626.02C1555.43 1637.19 1533.08 1640.83 1511.47 1636.94V1359.78ZM1421.15 1347.39L1420.33 1360.97H1443.45V1642.5H1424.24V1652.06H1562.64C1618.23 1647.14 1658.53 1619.67 1683.56 1569.66C1695.08 1538.87 1695.87 1500.27 1685.93 1453.83C1661.36 1382.69 1611.49 1347.21 1536.33 1347.39H1421.15Z" fill="white"/>
<path d="M1842.09 1528.14C1848.77 1529.17 1856.17 1531.11 1864.31 1533.97C1889.68 1539.82 1901.47 1537.15 1899.64 1525.95L1820.41 1342.21L1679.83 1644.23H1654.61V1658.71H1737.47V1638.41H1718.08V1594.42L1752.59 1529.59C1792.43 1527.89 1816.47 1535.11 1824.69 1551.26C1825.4 1530.42 1816.48 1517.43 1797.93 1512.29H1758.51L1795.84 1436.62C1821.08 1497.51 1836.49 1528.02 1842.09 1528.14Z" fill="white"/>
<path d="M1919.76 1572.85L1854.93 1573.57L1883.8 1644.87H1865.76V1654.98H1951.53V1639.86L1919.76 1572.85Z" fill="white"/>
<path d="M2102.87 1358.14C2125.23 1364.85 2137.25 1382.85 2138.93 1412.13C2143.61 1444.82 2138.09 1468.86 2122.36 1484.25C2118.31 1489.19 2104.13 1490.37 2079.83 1487.79H2048.15V1358.14H2102.87ZM1959.45 1344.39V1362.42H1981.77V1642.05H1964.47V1653.61H2062.53V1642.78H2053.88V1503.73C2081.28 1539.77 2103.85 1575.79 2121.63 1611.82C2131.16 1636.67 2143.17 1649.15 2157.68 1649.23H2218.88L2131.73 1518.11C2177.19 1512.95 2202.65 1488.67 2208.13 1445.27C2210.17 1383.23 2176.29 1349.61 2106.51 1344.39H1959.45Z" fill="white"/>
<path d="M2223.97 1344.02V1360.23H2250.65V1455.38H2295.27L2315.48 1443.91V1358.86L2398.35 1368.15V1378.26H2406.27L2443.05 1361.69V1344.39L2223.97 1344.02ZM2402.71 1423.7H2391.15C2380.55 1455.22 2363.72 1473.01 2340.71 1477.06V1494.35C2367.76 1495.07 2381.68 1511.89 2382.49 1544.79L2402.71 1545.53V1423.7ZM2458.89 1576.49H2449.52C2438.68 1602.66 2421.15 1621.39 2396.88 1632.66C2378.24 1638.51 2353.03 1641.39 2321.21 1641.31L2311.2 1505.1C2301.43 1503.95 2293.47 1499.15 2287.35 1490.71L2249.92 1482.06V1641.31H2229.71V1658.62H2458.89V1576.49Z" fill="white"/>
<path d="M542.655 1346.39V1364.87H561.139V1501.91L610.399 1480.33L631.979 1460.3V1346.39H542.655ZM713.565 1349.49C702.953 1362.46 702.437 1379.9 712.017 1401.85V1446.46C726.903 1455.27 730.999 1464.53 724.309 1474.23L693.533 1494.26C722.975 1508.26 736.33 1530.35 733.597 1560.55C736.697 1595.01 715.633 1624.74 670.405 1649.78C683.822 1658.07 708.466 1654.46 744.341 1638.95C796.749 1618.09 813.199 1579.61 793.691 1523.49C781.305 1498.49 762.821 1487.71 738.241 1491.17C729.578 1484.78 732.129 1478.62 745.889 1472.69C769.822 1466.95 780.05 1441.77 776.574 1397.11C762.646 1359.99 741.642 1344.13 713.565 1349.49ZM631.979 1658.98V1518.85L564.145 1521.94V1637.41L541.107 1643.59V1658.98H631.979Z" fill="white"/>
</svg>