<svg width="6500" height="3000" viewBox="0 0 6500 3000" fill="none" xmlns="http://www.w3.org/2000/svg">
<path d="M1646.24 1126.39C1661.38 1126.72 1675.84 1128.99 1689.64 1133.19C1777.85 1167.15 1818.39 1229.6 1811.25 1320.53C1793.85 1405.77 1745.34 1454.66 1665.71 1467.18H1239.52L1239.33 1305.21L1176.8 1304.99V1632.29H1239.38V1533.98H1667.55C1775.95 1565.4 1824.68 1628.78 1813.77 1724.14C1792.4 1819.01 1733.66 1869.64 1637.55 1876.04H1240.25V1761.05H1171.61L1171.61 1941.48H1661.14C1743.75 1934.64 1810.76 1884.93 1862.18 1792.34C1900.4 1677.93 1867.98 1579.51 1764.89 1497.09C1860.71 1433.61 1893.21 1338.46 1862.37 1211.64C1816.92 1114.66 1749.23 1063.62 1659.3 1058.52H1176.61L1175.73 1178.92H1240.2V1126.39H1646.24Z" fill="white"/>
<path d="M1849.6 1680.78C1838.51 1687.5 1818.59 1692.46 1789.84 1695.64H1090.97L1091.22 1304.7L1777.51 1307.13C1880.59 1318.16 1941.03 1374.61 1958.83 1476.46C1965.33 1571.05 1928.92 1639.16 1849.6 1680.78ZM1880.33 1733.41C1984.69 1678.66 2032.59 1589.05 2024.03 1464.56C2000.62 1330.54 1921.1 1256.3 1785.47 1241.84L1028.64 1241.45L1025 1761.08H1765.66C1815.24 1756.76 1853.46 1747.54 1880.33 1733.41Z" fill="white"/>
<path d="M2731.86 1234.73V1260.09H2775.92V1736.42L2742.65 1740.35V1756.46H3113.67L3130.99 1629.76H3108.2C3080.57 1699.53 3030.79 1736.86 2958.85 1741.73H2890.78V1265.41H2998.8C3050.98 1271.17 3082.13 1278.71 3092.24 1288.06V1357.49H3122.78V1234.73H2731.86ZM3050.92 1381.5H3026.76C3016.79 1432.11 2987.02 1465.48 2937.42 1481.61V1501.52C2997.17 1510.38 3024.77 1537.52 3020.23 1582.95H3050.92V1381.5Z" fill="white"/>
<path d="M3517.81 1627.02L3503.06 1628.38C3474.27 1685.18 3425.35 1721.64 3356.31 1737.77V1755.11H3517.81V1627.02Z" fill="white"/>
<path d="M3148.32 1257.35H3192.37V1733.81H3157.57V1761.78C3179.07 1763.18 3197.8 1759.58 3213.79 1750.99C3259.94 1734.84 3287.9 1710.43 3297.67 1677.77V1256H3331.08V1240.04H3148.32V1257.35Z" fill="white"/>
<path d="M3540.59 1256H3567.33V1741.73H3540.59V1759.04H3718.06V1733.68H3683.42V1264.05L3715.33 1262.69V1239.89H3540.59V1256Z" fill="white"/>
<path d="M3894.13 1266.03C3938.61 1255.13 3979.59 1265.05 4017.05 1295.8C4070.2 1362.27 4092.63 1446.95 4084.35 1549.82C4087.6 1620.86 4061.48 1674.35 4005.97 1710.28C3967.49 1728.92 3930.2 1734.99 3894.13 1728.5V1266.03ZM3743.43 1245.36L3742.07 1268.01H3780.65V1737.77H3748.59V1753.73H3979.52C4072.27 1745.52 4139.53 1699.69 4181.29 1616.23C4200.51 1564.86 4201.82 1500.46 4185.25 1422.97C4144.25 1304.25 4061.04 1245.05 3935.63 1245.36H3743.43Z" fill="white"/>
<path d="M4445.81 1546.95C4456.96 1548.67 4469.31 1551.92 4482.88 1556.68C4525.22 1566.44 4544.88 1561.99 4541.84 1543.31L4409.64 1236.71L4175.06 1740.67H4132.99V1764.83H4271.23V1730.94H4238.89V1657.55L4296.46 1549.38C4362.94 1546.53 4403.05 1558.59 4416.78 1585.53C4417.96 1550.76 4403.08 1529.09 4372.13 1520.5H4306.34L4368.64 1394.24C4410.75 1495.85 4436.47 1546.75 4445.81 1546.95Z" fill="white"/>
<path d="M4575.41 1621.55L4467.24 1622.75L4515.4 1741.73H4485.3V1758.6H4628.42V1733.37L4575.41 1621.55Z" fill="white"/>
<path d="M4880.94 1263.29C4918.25 1274.48 4938.32 1304.52 4941.12 1353.38C4948.93 1407.93 4939.72 1448.04 4913.46 1473.71C4906.7 1481.97 4883.05 1483.93 4842.49 1479.63H4789.63V1263.29H4880.94ZM4641.64 1240.36V1270.44H4678.88V1737.02H4650.01V1756.31H4813.64V1738.24H4799.2V1506.22C4844.92 1566.35 4882.58 1626.47 4912.24 1686.58C4928.15 1728.05 4948.19 1748.88 4972.4 1749.01H5074.52L4929.11 1530.22C5004.95 1521.61 5047.44 1481.1 5056.59 1408.68C5059.99 1305.16 5003.46 1249.06 4887.01 1240.36H4641.64Z" fill="white"/>
<path d="M5083.02 1239.73V1266.79H5127.53V1425.55H5201.98L5235.7 1406.41V1264.5L5373.97 1280V1296.87H5387.19L5448.57 1269.21V1240.36L5083.02 1239.73ZM5381.25 1372.69H5361.96C5344.27 1425.28 5316.2 1454.96 5277.8 1461.72V1490.58C5322.94 1491.78 5346.16 1519.83 5347.52 1574.74L5381.25 1575.97V1372.69ZM5475 1627.62H5459.36C5441.27 1671.3 5412.02 1702.56 5371.53 1721.36C5340.42 1731.12 5298.35 1735.93 5245.27 1735.79L5228.56 1508.51C5212.25 1506.6 5198.97 1498.59 5188.76 1484.5L5126.31 1470.07V1735.79H5092.58V1764.67H5475V1627.62Z" fill="white"/>
<path d="M2277.58 1243.69V1274.53H2308.43V1503.19L2390.62 1467.17L2426.63 1433.76V1243.69H2277.58ZM2562.76 1248.85C2545.05 1270.5 2544.19 1299.6 2560.18 1336.22V1410.66C2585.02 1425.37 2591.85 1440.81 2580.69 1457.01L2529.34 1490.42C2578.46 1513.78 2600.75 1550.65 2596.19 1601.04C2601.36 1658.53 2566.21 1708.14 2490.74 1749.92C2513.13 1763.76 2554.25 1757.73 2614.11 1731.86C2701.56 1697.04 2729.01 1632.83 2696.46 1539.19C2675.79 1497.47 2644.95 1479.5 2603.93 1485.26C2589.48 1474.6 2593.74 1464.33 2616.7 1454.43C2656.63 1444.86 2673.7 1402.83 2667.9 1328.32C2644.66 1266.39 2609.61 1239.91 2562.76 1248.85ZM2426.63 1765.27V1531.45L2313.44 1536.61V1729.28L2275 1739.6V1765.27H2426.63Z" fill="white"/>
</svg>
